<?xml version="1.0" encoding="utf-8"?>
<!-- Generator: Adobe Illustrator 27.9.0, SVG Export Plug-In . SVG Version: 6.00 Build 0)  -->
<svg version="1.1" id="Layer_1" xmlns="http://www.w3.org/2000/svg" xmlns:xlink="http://www.w3.org/1999/xlink" x="0px" y="0px"
	 viewBox="0 0 48.87 24.53" style="enable-background:new 0 0 48.87 24.53;" xml:space="preserve">
<style type="text/css">
	.st0{fill:#2F3183;}
	.st1{fill:#EF5526;}
	.st2{fill:#4C4C4E;}
	.st3{fill:#FFFFFF;}
	.st4{fill:#D43B27;}
	.st5{fill:#2F2F84;}
	.st6{fill:#39489E;}
	.st7{fill:#568A3E;}
</style>
<g>
	<path d="M15.22,0.94L12.6,18.53h-2.37L8.3,7.12H8.25l-1.9,11.41H3.98L1.36,0.94h2.67l1.26,11.17h0.05L7.31,0.94h1.93l2.05,11.44
		h0.05l1.21-11.44H15.22z"/>
	<path d="M20.73,18.53v-1.28h-0.05c-0.33,0.46-0.66,0.82-1,1.06c-0.34,0.25-0.81,0.37-1.42,0.37c-0.3,0-0.6-0.05-0.9-0.14
		c-0.3-0.09-0.6-0.26-0.88-0.51c-0.28-0.23-0.51-0.56-0.68-1c-0.17-0.44-0.26-1-0.26-1.69c0-0.71,0.06-1.33,0.17-1.87
		c0.12-0.53,0.33-0.98,0.64-1.35c0.3-0.35,0.7-0.6,1.21-0.78c0.51-0.17,1.16-0.26,1.95-0.26c0.08,0,0.17,0,0.27,0
		c0.1,0,0.19,0.01,0.27,0.02c0.08,0.02,0.18,0.02,0.3,0.02c0.11,0,0.24,0.01,0.37,0.03V9.86c0-0.43-0.09-0.78-0.27-1.06
		c-0.18-0.28-0.51-0.42-0.99-0.42c-0.33,0-0.63,0.11-0.9,0.32c-0.27,0.21-0.45,0.53-0.53,0.94h-2.45c0.07-1.12,0.44-2.03,1.14-2.72
		c0.33-0.33,0.72-0.59,1.19-0.78c0.46-0.19,0.98-0.28,1.56-0.28c0.53,0,1.02,0.08,1.48,0.25c0.46,0.16,0.86,0.41,1.21,0.74
		c0.33,0.33,0.59,0.74,0.79,1.24c0.2,0.49,0.3,1.07,0.3,1.73v8.72H20.73z M20.73,13.14c-0.28-0.05-0.51-0.07-0.69-0.07
		c-0.54,0-1.01,0.13-1.4,0.38s-0.58,0.72-0.58,1.4c0,0.48,0.12,0.86,0.35,1.16c0.23,0.3,0.55,0.44,0.96,0.44
		c0.43,0,0.76-0.14,1-0.42c0.24-0.28,0.36-0.68,0.36-1.19V13.14z"/>
	<path d="M23.49,6h2.67l1.73,7.81h0.05L29.64,6h2.59l-3.61,14.7c-0.13,0.56-0.32,1.02-0.56,1.38c-0.24,0.36-0.51,0.66-0.83,0.89
		c-0.31,0.23-0.65,0.39-1,0.48c-0.35,0.09-0.72,0.14-1.1,0.14h-0.69v-2.37h0.57c0.25,0,0.46-0.03,0.64-0.1
		c0.18-0.07,0.35-0.21,0.49-0.44c0.13-0.23,0.26-0.56,0.37-0.98c0.12-0.42,0.25-1,0.4-1.74L23.49,6z"/>
	<path class="st4" d="M32.33,18.53v-1.97l3.56-8.19h-3.28V6.18h5.79v1.97l-3.56,8.04h3.56v2.34H32.33z"/>
	<path d="M43.79,18.53v-2.62h-5.01v-2.37l3.63-12.6h2.67l-3.78,12.6h2.5V8.52h2.52v5.01h1.21v2.37h-1.21v2.62H43.79z"/>
</g>
</svg>
