<?xml version="1.0" encoding="utf-8"?>
<!-- Generator: Adobe Illustrator 28.0.0, SVG Export Plug-In . SVG Version: 6.00 Build 0)  -->
<svg version="1.1" id="Camada_1" xmlns="http://www.w3.org/2000/svg" xmlns:xlink="http://www.w3.org/1999/xlink" x="0px" y="0px"
	 viewBox="0 0 508.63 164.7" style="enable-background:new 0 0 508.63 164.7;" xml:space="preserve">
<style type="text/css">
	.st0{fill:#105FAD;}
</style>
<g>
	<g>
		<path class="st0" d="M191.99,96h17.7V80.27h6.99v38.2h-6.99v-16.62h-17.7v16.62H185v-38.2h6.99V96z"/>
		<path class="st0" d="M241.24,115.52h-0.12c-0.38,0.4-0.84,0.81-1.37,1.23c-0.54,0.42-1.14,0.81-1.83,1.19
			c-0.68,0.37-1.45,0.67-2.28,0.9c-0.84,0.23-1.74,0.34-2.71,0.34c-1.31,0-2.54-0.21-3.68-0.61s-2.12-1-2.94-1.77
			c-0.82-0.77-1.46-1.7-1.93-2.8c-0.47-1.09-0.7-2.32-0.7-3.67c0-1.48,0.27-2.82,0.82-4c0.54-1.18,1.3-2.18,2.27-3
			c0.97-0.82,2.13-1.44,3.48-1.87c1.35-0.43,2.85-0.64,4.48-0.64c1.2,0,2.3,0.08,3.31,0.23c1.01,0.15,1.89,0.33,2.66,0.54v-1.11
			c0-0.65-0.11-1.27-0.33-1.87s-0.57-1.13-1.05-1.6c-0.49-0.47-1.12-0.84-1.9-1.11c-0.78-0.28-1.73-0.41-2.85-0.41
			c-1.37,0-2.74,0.15-4.11,0.46c-1.37,0.3-2.85,0.76-4.45,1.37v-5.28c1.39-0.61,2.87-1.07,4.43-1.4c1.56-0.32,3.19-0.5,4.91-0.51
			c2.02,0,3.78,0.25,5.3,0.74c1.51,0.5,2.78,1.18,3.8,2.04c1.02,0.87,1.78,1.89,2.28,3.07c0.5,1.18,0.76,2.46,0.76,3.85v10.42
			c0,1.83,0.02,3.4,0.05,4.71c0.04,1.31,0.08,2.49,0.12,3.51h-6.11L241.24,115.52z M240.7,106.67c-0.65-0.15-1.39-0.29-2.23-0.41
			c-0.84-0.12-1.69-0.19-2.54-0.19c-1.65,0-2.96,0.33-3.92,0.99c-0.96,0.66-1.44,1.66-1.44,3.01c0,0.63,0.11,1.17,0.33,1.64
			c0.22,0.47,0.51,0.85,0.89,1.16c0.37,0.3,0.8,0.53,1.3,0.68c0.49,0.15,1.02,0.23,1.57,0.23c0.68,0,1.33-0.09,1.94-0.27
			s1.17-0.41,1.69-0.69c0.51-0.28,0.97-0.58,1.38-0.93c0.41-0.34,0.76-0.68,1.04-1V106.67z"/>
		<path class="st0" d="M271.5,96.17h-0.57c-2.07,0-3.9,0.31-5.47,0.93c-1.57,0.62-2.79,1.57-3.64,2.84v18.53h-6.77V90.8h5.6
			l0.63,3.85h0.11c0.8-1.41,1.9-2.52,3.3-3.33c1.4-0.81,3.08-1.21,5.04-1.21c0.68,0,1.27,0.04,1.77,0.11V96.17z"/>
		<path class="st0" d="M275.79,118.46V79.67h6.77v38.79H275.79z"/>
		<path class="st0" d="M304.51,113.72c1.31,0,2.68-0.13,4.11-0.4c1.43-0.27,2.87-0.65,4.34-1.14v5.4c-0.88,0.38-2.22,0.74-4.03,1.08
			c-1.81,0.34-3.68,0.51-5.62,0.51c-1.96,0-3.82-0.25-5.58-0.76c-1.76-0.5-3.3-1.32-4.61-2.44c-1.31-1.12-2.35-2.58-3.13-4.37
			c-0.77-1.79-1.16-3.96-1.16-6.51c0-2.51,0.36-4.71,1.08-6.6c0.72-1.88,1.7-3.44,2.91-4.68c1.22-1.24,2.61-2.17,4.18-2.78
			c1.57-0.62,3.19-0.93,4.87-0.93c1.75,0,3.36,0.27,4.84,0.8c1.47,0.53,2.75,1.37,3.83,2.51c1.07,1.14,1.91,2.61,2.51,4.41
			c0.6,1.8,0.9,3.93,0.9,6.38c-0.02,0.95-0.05,1.76-0.09,2.43h-18.13c0.1,1.28,0.38,2.37,0.86,3.27c0.48,0.9,1.1,1.64,1.87,2.2
			c0.77,0.56,1.67,0.97,2.7,1.23C302.19,113.6,303.31,113.72,304.51,113.72z M301.79,95.4c-0.86,0-1.62,0.16-2.29,0.47
			c-0.66,0.31-1.24,0.74-1.73,1.28c-0.49,0.54-0.87,1.18-1.16,1.9c-0.29,0.72-0.48,1.49-0.57,2.31h10.88c0-0.82-0.11-1.59-0.33-2.31
			c-0.22-0.72-0.54-1.36-0.97-1.9c-0.43-0.54-0.96-0.97-1.6-1.28C303.4,95.55,302.65,95.4,301.79,95.4z"/>
		<path class="st0" d="M316.52,90.8h7.25l4.14,10.02c1.56,3.81,2.67,6.62,3.31,8.45h0.12c0.47-1.43,1.48-4.07,3.02-7.94l4.28-10.54
			h7.34l-17.82,40.94h-6.68l6.34-14.82L316.52,90.8z"/>
		<path class="st0" d="M362.89,118.46v-38.2h10.11c0.89,0,1.8,0.03,2.73,0.09c0.92,0.06,1.82,0.14,2.7,0.26
			c0.88,0.11,1.72,0.25,2.54,0.41c0.82,0.16,1.57,0.36,2.25,0.59c2.04,0.65,3.84,1.52,5.4,2.63c1.56,1.1,2.87,2.41,3.92,3.91
			c1.06,1.5,1.86,3.18,2.4,5.04c0.54,1.86,0.82,3.87,0.82,6.04c0,2.06-0.23,3.98-0.69,5.78c-0.46,1.8-1.15,3.44-2.08,4.93
			c-0.93,1.48-2.11,2.79-3.53,3.92c-1.42,1.13-3.1,2.06-5.04,2.78c-1.62,0.61-3.45,1.07-5.51,1.37c-2.06,0.3-4.37,0.46-6.94,0.46
			H362.89z M372.76,112.61c4.09,0,7.29-0.56,9.59-1.68c2.04-1.01,3.58-2.47,4.62-4.4c1.05-1.92,1.57-4.38,1.57-7.37
			c0-1.56-0.17-2.97-0.51-4.23c-0.34-1.26-0.84-2.37-1.48-3.35c-0.64-0.98-1.43-1.82-2.35-2.53c-0.92-0.7-1.97-1.28-3.13-1.74
			c-1.08-0.42-2.29-0.72-3.63-0.91c-1.33-0.19-2.83-0.29-4.48-0.29h-3.08v26.49H372.76z"/>
		<path class="st0" d="M402.31,79.71h7.11v7.34h-7.11V79.71z M402.49,90.8h6.77v27.66h-6.77V90.8z"/>
		<path class="st0" d="M431.09,113.72c1.31,0,2.68-0.13,4.11-0.4c1.43-0.27,2.87-0.65,4.34-1.14v5.4c-0.88,0.38-2.22,0.74-4.03,1.08
			c-1.81,0.34-3.68,0.51-5.62,0.51c-1.96,0-3.82-0.25-5.58-0.76c-1.76-0.5-3.3-1.32-4.61-2.44c-1.31-1.12-2.35-2.58-3.13-4.37
			c-0.77-1.79-1.16-3.96-1.16-6.51c0-2.51,0.36-4.71,1.08-6.6c0.72-1.88,1.7-3.44,2.91-4.68c1.22-1.24,2.61-2.17,4.18-2.78
			c1.57-0.62,3.19-0.93,4.87-0.93c1.75,0,3.36,0.27,4.84,0.8c1.47,0.53,2.75,1.37,3.83,2.51c1.07,1.14,1.91,2.61,2.51,4.41
			c0.6,1.8,0.9,3.93,0.9,6.38c-0.02,0.95-0.05,1.76-0.09,2.43h-18.13c0.1,1.28,0.38,2.37,0.86,3.27c0.48,0.9,1.1,1.64,1.87,2.2
			c0.77,0.56,1.67,0.97,2.7,1.23C428.78,113.6,429.89,113.72,431.09,113.72z M428.38,95.4c-0.86,0-1.62,0.16-2.29,0.47
			c-0.66,0.31-1.24,0.74-1.73,1.28c-0.49,0.54-0.87,1.18-1.16,1.9c-0.29,0.72-0.48,1.49-0.57,2.31h10.88c0-0.82-0.11-1.59-0.33-2.31
			c-0.22-0.72-0.54-1.36-0.97-1.9c-0.43-0.54-0.96-0.97-1.6-1.28C429.98,95.55,429.24,95.4,428.38,95.4z"/>
		<path class="st0" d="M459.07,110.44c0-0.59-0.17-1.07-0.5-1.46c-0.33-0.38-0.78-0.7-1.33-0.96c-0.55-0.26-1.19-0.48-1.9-0.67
			c-0.71-0.19-1.46-0.38-2.24-0.57c-0.99-0.27-1.94-0.57-2.86-0.93c-0.91-0.35-1.72-0.81-2.41-1.38c-0.69-0.57-1.25-1.29-1.65-2.15
			c-0.41-0.87-0.61-1.93-0.61-3.18c0-1.54,0.27-2.88,0.83-4.01c0.55-1.13,1.3-2.07,2.24-2.81c0.94-0.74,2.04-1.29,3.28-1.66
			c1.25-0.36,2.56-0.54,3.95-0.54c1.69,0,3.28,0.14,4.77,0.41c1.48,0.28,2.82,0.63,4.02,1.07v5.51c-0.63-0.21-1.29-0.4-1.98-0.58
			c-0.69-0.18-1.4-0.34-2.11-0.47c-0.71-0.13-1.42-0.24-2.13-0.33c-0.71-0.09-1.37-0.13-2-0.13c-0.8,0-1.48,0.08-2.03,0.23
			c-0.55,0.15-1,0.36-1.34,0.61c-0.34,0.26-0.59,0.55-0.74,0.89c-0.15,0.33-0.23,0.68-0.23,1.04c0,0.63,0.16,1.14,0.5,1.54
			c0.33,0.4,0.79,0.72,1.38,0.97c0.59,0.25,1.21,0.45,1.86,0.61c0.65,0.16,1.28,0.32,1.89,0.47c0.95,0.23,1.9,0.5,2.85,0.83
			c0.95,0.32,1.81,0.78,2.57,1.36c0.76,0.58,1.39,1.33,1.87,2.26c0.49,0.92,0.73,2.1,0.73,3.53c0,1.56-0.3,2.92-0.89,4.08
			c-0.59,1.16-1.41,2.13-2.47,2.9c-1.05,0.77-2.32,1.34-3.8,1.71c-1.48,0.37-3.1,0.56-4.87,0.56c-1.75,0-3.32-0.14-4.72-0.41
			c-1.4-0.27-2.56-0.62-3.47-1.04v-5.45c1.48,0.55,2.85,0.93,4.11,1.13c1.26,0.2,2.43,0.3,3.51,0.3c0.84,0,1.62-0.06,2.34-0.19
			c0.72-0.12,1.35-0.32,1.87-0.59c0.52-0.27,0.94-0.6,1.24-1.01C458.92,111.5,459.07,111.01,459.07,110.44z"/>
		<path class="st0" d="M485.85,113.72c1.31,0,2.68-0.13,4.11-0.4c1.43-0.27,2.87-0.65,4.34-1.14v5.4c-0.88,0.38-2.22,0.74-4.03,1.08
			c-1.81,0.34-3.68,0.51-5.62,0.51c-1.96,0-3.82-0.25-5.58-0.76c-1.76-0.5-3.3-1.32-4.61-2.44c-1.31-1.12-2.35-2.58-3.13-4.37
			c-0.77-1.79-1.16-3.96-1.16-6.51c0-2.51,0.36-4.71,1.08-6.6c0.72-1.88,1.7-3.44,2.91-4.68c1.22-1.24,2.61-2.17,4.18-2.78
			c1.57-0.62,3.19-0.93,4.87-0.93c1.75,0,3.36,0.27,4.84,0.8c1.47,0.53,2.75,1.37,3.83,2.51c1.07,1.14,1.91,2.61,2.51,4.41
			c0.6,1.8,0.9,3.93,0.9,6.38c-0.02,0.95-0.05,1.76-0.09,2.43h-18.13c0.1,1.28,0.38,2.37,0.86,3.27c0.48,0.9,1.1,1.64,1.87,2.2
			c0.77,0.56,1.67,0.97,2.7,1.23C483.54,113.6,484.65,113.72,485.85,113.72z M483.14,95.4c-0.86,0-1.62,0.16-2.29,0.47
			c-0.66,0.31-1.24,0.74-1.73,1.28c-0.49,0.54-0.87,1.18-1.16,1.9c-0.29,0.72-0.48,1.49-0.57,2.31h10.88c0-0.82-0.11-1.59-0.33-2.31
			c-0.22-0.72-0.54-1.36-0.97-1.9c-0.43-0.54-0.96-0.97-1.6-1.28C484.74,95.55,483.99,95.4,483.14,95.4z"/>
		<path class="st0" d="M501.86,118.46V79.67h6.77v38.79H501.86z"/>
	</g>
	<path class="st0" d="M93.52,0c0,0-10.48,28.58-37.82,45.26C37.25,56.52,22.28,88.06,43.76,113.6c0,0-11.95-35.78,22.58-55.31
		C86.5,46.88,101.83,23.21,93.52,0"/>
	<path class="st0" d="M0,143.85c0,0,29.48-5.02,57.29,10.83c18.77,10.69,52.99,8.17,63.91-23.6c0,0-24.36,28.46-58.19,7.68
		C43.25,126.62,15.52,124.89,0,143.85"/>
	<path class="st0" d="M168.72,154.66c0,0-18.99-23.57-19.46-56.09c-0.32-21.95-19.57-50.96-51.96-44.73c0,0,36.31,7.32,35.61,47.63
		C132.49,125.01,144.89,150.41,168.72,154.66"/>
	<path class="st0" d="M115.74,85.27c-1.8-3.73-5.16-5.6-10.08-5.6h-7.98h-4.74H91.9l-5.93,16.06H73.01l3.12-16.06h-7.18
		l-11.27,39.99h7.18l5.96-16.17h12.97l-3.16,16.17h1.05h4.74h7.17c5.37,0,10-1.77,13.89-5.31c3.89-3.54,6.72-8.41,8.46-14.61
		C117.61,93.82,117.54,89,115.74,85.27z M103.57,108.86c-2.26,2.32-4.92,3.48-7.96,3.48h-4.69L98.07,87h4.6
		c3.06,0,5.08,1.13,6.07,3.39c0.99,2.26,0.94,5.36-0.17,9.29C107.5,103.48,105.84,106.54,103.57,108.86z"/>
</g>
</svg>
